#!OML:ASF G:\ViconDB\ViconDB\414\test\team2\shane.ASF
:FULLY-SPECIFIED
:DEGREES
145
root 7.00401 13.6917 -6.4703 239.601 -43.4718 138.474
lowerback 27.4443 3.62511 26.9605
upperback 3.14398 12.2528 1.41817
thorax -5.55405 5.21511 -15.288
lowerneck -9.26009 -8.14679 -14.578
upperneck 3.65369 -9.5213 4.64413
head 3.47572 -4.80038 3.09833
rclavicle 1.09729e-013 6.36111e-014
rhumerus -14.7912 13.6019 -30.1037
rradius 26.7332
rwrist -14.0112
rhand -33.3329 -40.9979
rfingers 7.12502
rthumb -6.53563 -70.8771
lclavicle 1.09729e-013 6.36111e-014
lhumerus -35.0265 -37.4645 67.0507
lradius 22.2795
lwrist 7.59998
lhand -41.6695 12.4222
lfingers 7.12502
lthumb -14.5767 41.89
rfemur -75.0817 -28.7628 26.1214
rtibia 92.8956
rfoot -39.2077 -12.7051
rtoes -22.2641
lfemur -12.9315 21.971 -16.333
ltibia 67.1839
lfoot -19.1587 -19.0739
ltoes -11.3489
146
root 7.07863 13.7139 -6.37359 239.322 -45.4284 137.261
lowerback 26.6851 3.50507 26.5587
upperback 3.16405 11.7705 1.61781
thorax -5.50538 5.0048 -14.7398
lowerneck -9.43219 -7.93084 -14.377
upperneck 3.96423 -9.22429 4.66989
head 3.56432 -4.65196 3.09044
rclavicle 3.49861e-014 -5.725e-014
rhumerus -15.6247 14.6387 -31.0167
rradius 26.8822
rwrist -16.5846
rhand -32.8804 -40.435
rfingers 7.12502
rthumb -6.09876 -70.3273
lclavicle 3.49861e-014 -5.725e-014
lhumerus -35.6387 -37.642 69.8299
lradius 22.8003
lwrist 7.18375
lhand -42.0839 11.6271
lfingers 7.12502
lthumb -14.976 41.0655
rfemur -73.5985 -29.0108 25.7919
rtibia 92.6253
rfoot -38.8341 -14.3153
rtoes -21.8047
lfemur -12.1512 23.0853 -16.0219
ltibia 69.0797
lfoot -19.278 -17.2708
ltoes -9.13723
147
root 7.15139 13.737 -6.28089 239.194 -47.21 135.975
lowerback 26.0695 3.41465 26.0182
upperback 3.14304 11.3486 1.72339
thorax -5.54431 4.81505 -14.2698
lowerneck -9.81724 -7.75972 -14.1959
upperneck 4.41134 -8.95445 4.68093
head 3.73175 -4.51852 3.06917
rclavicle -1.06549e-013 -3.18055e-015
rhumerus -16.5199 16.1736 -32.0569
rradius 26.9085
rwrist -19.0026
rhand -32.1491 -40.0328
rfingers 7.12502
rthumb -5.39267 -69.9442
lclavicle -1.06549e-013 -3.18055e-015
lhumerus -36.6265 -39.2439 73.0624
lradius 23.6678
lwrist 7.67069
lhand -42.3761 11.5492
lfingers 7.12502
lthumb -15.2575 40.9665
rfemur -72.0307 -29.112 25.2485
rtibia 92.2451
rfoot -38.336 -16.3276
rtoes -22.1778
lfemur -11.2465 24.3315 -15.7976
ltibia 70.9085
lfoot -19.8112 -14.7894
ltoes -10.0348
148
root 7.22944 13.7687 -6.19083 239.419 -49.1087 134.388
lowerback 25.3684 3.35261 25.4551
upperback 3.14148 10.9373 1.92693
thorax -5.52928 4.63642 -13.6685
lowerneck -10.2889 -7.6486 -14.2474
upperneck 4.86857 -8.72791 4.72673
head 3.93201 -4.40923 3.08746
rclavicle -8.74653e-014 -1.17681e-013
rhumerus -17.4159 17.806 -32.9738
rradius 26.7129
rwrist -20.8378
rhand -31.6666 -38.7305
rfingers 7.12502
rthumb -4.92681 -68.6532
lclavicle -8.74653e-014 -1.17681e-013
lhumerus -36.7281 -39.5716 75.6064
lradius 24.0861
lwrist 6.94091
lhand -42.4576 10.9407
lfingers 7.12502
lthumb -15.336 40.352
rfemur -70.4863 -29.2332 24.6554
rtibia 91.7264
rfoot -37.9058 -17.972
rtoes -21.8724
lfemur -10.3748 25.1819 -15.4905
ltibia 72.6981
lfoot -19.7127 -13.1014
ltoes -8.7898
149
root 7.3027 13.804 -6.11261 240.187 -51.338 132.097
lowerback 21.527 1.64036 8.59949
upperback 7.89053 3.25403 5.44039
thorax -3.16582 1.29425 0.234006
lowerneck -27.9146 0.590845 0.82314
upperneck 8.90331 0.992608 -4.16938
head 7.17103 0.00270184 -1.40854
rclavicle 8.26944e-014 -1.59028e-014
rhumerus -7.4487 -22.8345 -51.0976
rradius 25.1687
rwrist 27.5412
rhand -33.0098 -30.2406
rfingers 7.12502
rthumb -6.22369 -60.1292
lclavicle 8.26944e-014 -1.59028e-014
lhumerus -33.1758 -18.0521 67.9732
lradius 22.1398
lwrist 1.67792
lhand -42.783 8.9695
lfingers 7.12502
lthumb -15.6493 38.3566
rfemur -68.645 -29.8129 24.0707
rtibia 91.1245
rfoot -37.702 -19.3476
rtoes -20.8664
lfemur -9.29388 25.5852 -14.863
ltibia 74.4028
lfoot -19.8289 -11.6638
ltoes -8.59203
150
root 7.38495 13.8462 -6.03493 241.193 -53.5338 129.87
lowerback 21.1392 1.35008 8.54158
upperback 7.56742 2.90635 5.55157
thorax -3.35212 1.12787 0.467648
lowerneck -27.9996 0.617115 0.740704
upperneck 9.44192 1.06394 -3.97356
head 7.36475 0.054498 -1.32211
rclavicle 1.04958e-013 5.40694e-014
rhumerus -9.37722 -22.6925 -50.6588
rradius 24.6639
rwrist 28.7272
rhand -32.6139 -28.502
rfingers 7.12502
rthumb -5.84146 -58.4015
lclavicle 1.04958e-013 5.40694e-014
lhumerus -32.75 -18.6005 69.8954
lradius 23.0778
lwrist 0.067146
lhand -43.0267 8.46977
lfingers 7.12502
lthumb -15.8841 37.8383
rfemur -67.0871 -30.0559 23.693
rtibia 90.3845
rfoot -37.1678 -21.0446
rtoes -20.8957
lfemur -8.39531 26.1286 -14.0661
ltibia 76.0732
lfoot -19.8045 -10.7847
ltoes -8.0645
151
root 7.47421 13.891 -5.95731 242.857 -55.8439 127.092
lowerback 20.544 0.975281 8.6033
upperback 7.30595 2.43488 5.61842
thorax -3.35638 0.910007 0.617751
lowerneck -28.5409 0.7212 0.977363
upperneck 10.2535 1.16984 -4.01674
head 7.72559 0.102228 -1.36575
rclavicle 5.40694e-014 3.81667e-014
rhumerus -11.1067 -21.9558 -50.4124
rradius 24.2592
rwrist 29.4258
rhand -32.5997 -27.3001
rfingers 7.12502
rthumb -5.82778 -57.2
lclavicle 5.40694e-014 3.81667e-014
lhumerus -32.4923 -20.0136 72.022
lradius 24.5059
lwrist -0.484714
lhand -43.1281 8.60396
lfingers 7.12502
lthumb -15.9817 37.9647
rfemur -65.7327 -30.5507 23.5204
rtibia 89.6047
rfoot -36.9634 -22.4106
rtoes -20.169
lfemur -7.70696 26.3446 -13.2746
ltibia 77.6916
lfoot -19.4411 -10.6545
ltoes -7.93274
152
root 7.55632 13.9363 -5.88295 245.089 -58.0396 123.784
lowerback 19.9212 0.680748 8.42567
upperback 6.9667 2.03467 5.79101
thorax -3.44139 0.721886 0.994188
lowerneck -28.759 0.684987 0.756987
upperneck 10.9007 1.18999 -3.71589
head 7.97591 0.133009 -1.2286
rclavicle 8.90555e-014 2.54444e-014
rhumerus -12.9092 -21.2999 -49.9824
rradius 23.794
rwrist 31.0261
rhand -32.7081 -26.2354
rfingers 7.12502
rthumb -5.93239 -56.1323
lclavicle 8.90555e-014 2.54444e-014
lhumerus -32.3562 -20.5466 74.0343
lradius 25.7867
lwrist -2.0255
lhand -43.6353 8.19556
lfingers 7.12502
lthumb -16.47 37.5165
rfemur -64.455 -31.3235 23.3115
rtibia 88.7768
rfoot -36.817 -23.5227
rtoes -18.775
lfemur -6.89935 26.3931 -12.5259
ltibia 79.1517
lfoot -19.2148 -10.4586
ltoes -8.02661
153
root 7.64003 13.9845 -5.8095 248.05 -60.154 119.805
lowerback 19.1288 0.279166 8.43632
upperback 6.71695 1.49038 5.7733
thorax -3.32384 0.475193 1.08865
lowerneck -29.018 0.776275 0.886294
upperneck 11.3029 1.26268 -3.58772
head 8.15433 0.18519 -1.19684
rclavicle -6.36111e-014 -3.18055e-014
rhumerus -14.459 -20.5037 -49.9114
rradius 23.3584
rwrist 32.2646
rhand -32.9168 -25.9884
rfingers 7.12502
rthumb -6.1339 -55.8796
lclavicle -6.36111e-014 -3.18055e-014
lhumerus -32.1024 -21.5856 75.9324
lradius 26.9083
lwrist -2.82226
lhand -43.9912 7.83719
lfingers 7.12502
lthumb -16.8127 37.1293
rfemur -63.2653 -32.2236 23.1176
rtibia 87.8933
rfoot -36.275 -24.8651
rtoes -17.5043
lfemur -6.11788 26.5431 -11.6573
ltibia 80.4607
lfoot -19.0967 -9.88804
ltoes -7.88394
154
root 7.71637 14.0429 -5.74155 251.282 -61.9517 115.631
lowerback 18.3563 -0.0142624 8.21527
upperback 6.49471 1.04201 5.78085
thorax -3.18795 0.272556 1.31124
lowerneck -29.195 0.812082 0.718835
upperneck 11.6111 1.35589 -3.39729
head 8.28677 0.240783 -1.09236
rclavicle -5.40694e-014 -1.94014e-013
rhumerus -16.0301 -19.6313 -49.7714
rradius 22.9844
rwrist 34.2088
rhand -33.3264 -25.2552
rfingers 7.12502
rthumb -6.5293 -55.1346
lclavicle -5.40694e-014 -1.94014e-013
lhumerus -31.6222 -21.9358 77.7269
lradius 27.4466
lwrist -4.57576
lhand -44.5771 7.60486
lfingers 7.12502
lthumb -17.3767 36.8481
rfemur -61.9526 -32.7294 22.5948
rtibia 86.9464
rfoot -35.7144 -26.1248
rtoes -16.4104
lfemur -5.22857 26.78 -10.886
ltibia 81.5415
lfoot -19.2267 -8.76098
ltoes -7.72182
